M48
;Layer_Color=9474304
;FILE_FORMAT=4:4
METRIC
;TYPE=PLATED
T1F00S00C0.3000
T2F00S00C0.9000
%
T01
X01590000Y00475000
X01600000
X01595000Y00480000
X01605000
X01590000Y00600000
Y00607000
Y00614000
X01563680Y00624680
X01564000Y00632000
X01549997Y00596999
X01529000Y00559000
X01517000Y00570000
X01505000
X01506000Y00556000
X01511000Y00551000
X01501000
X01491000
X01481000
X01486000Y00556000
X01496000
X01482000Y00573000
X01438000
X01415000Y00586500
X01443000Y00629000
X01447000Y00651000
X01431000
X01427000Y00663000
X01485000Y00637000
X01498000
X01507000Y00629000
X01559000Y00680000
X01562997Y00548999
X01555000Y00511000
X01579000Y00510000
X01586000Y00513000
X01585000Y00505000
Y00480000
X01580000Y00475000
X01514000Y00472000
X01506000Y00475000
X01511000Y00480000
X01506000Y00485000
X01501000Y00480000
X01496000Y00485000
X01491000Y00480000
X01496000Y00475000
X01488000Y00472000
X01494000Y00514000
Y00524000
X01509000
Y00514000
T02
X01624000Y00480000
Y00505400
Y00530800
Y00563000
Y00588400
Y00620000
Y00645400
Y00670800
X01464400Y00664000
X01439000
M30
