%FSAX44Y44*%
%MOMM*%
G71*
G01*
G75*
G04 Layer_Physical_Order=1*
G04 Layer_Color=255*
%ADD10R,0.9000X1.0000*%
%ADD11R,1.5000X0.6000*%
%ADD12R,1.0000X0.9000*%
%ADD13R,1.1000X0.6500*%
%ADD14R,1.0000X1.0000*%
%ADD15R,1.0000X1.0000*%
%ADD16R,0.6000X1.5000*%
%ADD17R,1.5000X1.3000*%
G04:AMPARAMS|DCode=18|XSize=1.32mm|YSize=1.68mm|CornerRadius=0.066mm|HoleSize=0mm|Usage=FLASHONLY|Rotation=90.000|XOffset=0mm|YOffset=0mm|HoleType=Round|Shape=RoundedRectangle|*
%AMROUNDEDRECTD18*
21,1,1.3200,1.5480,0,0,90.0*
21,1,1.1880,1.6800,0,0,90.0*
1,1,0.1320,0.7740,0.5940*
1,1,0.1320,0.7740,-0.5940*
1,1,0.1320,-0.7740,-0.5940*
1,1,0.1320,-0.7740,0.5940*
%
%ADD18ROUNDEDRECTD18*%
%ADD19R,1.8000X1.3000*%
G04:AMPARAMS|DCode=20|XSize=1.6mm|YSize=5.7mm|CornerRadius=0.08mm|HoleSize=0mm|Usage=FLASHONLY|Rotation=0.000|XOffset=0mm|YOffset=0mm|HoleType=Round|Shape=RoundedRectangle|*
%AMROUNDEDRECTD20*
21,1,1.6000,5.5400,0,0,0.0*
21,1,1.4400,5.7000,0,0,0.0*
1,1,0.1600,0.7200,-2.7700*
1,1,0.1600,-0.7200,-2.7700*
1,1,0.1600,-0.7200,2.7700*
1,1,0.1600,0.7200,2.7700*
%
%ADD20ROUNDEDRECTD20*%
%ADD21O,2.0000X0.6000*%
%ADD22R,1.3000X1.5000*%
%ADD23R,0.7000X0.6000*%
%ADD24R,0.7000X0.9000*%
%ADD25C,0.2000*%
%ADD26C,1.0000*%
%ADD27C,0.8000*%
%ADD28C,0.3000*%
%ADD29C,0.6000*%
%ADD30C,1.5000*%
%ADD31R,1.5000X1.5000*%
%ADD32R,1.5000X1.5000*%
%ADD33C,0.6000*%
G36*
X01520076Y00552284D02*
Y00544244D01*
X01516126D01*
Y00531196D01*
X01517000D01*
Y00528244D01*
X01516126D01*
Y00515196D01*
X01516126D01*
X01516126Y00514126D01*
X01510099Y00508099D01*
X01509595Y00508436D01*
X01509000Y00508554D01*
X01491000D01*
X01490405Y00508436D01*
X01489901Y00508099D01*
X01489564Y00507595D01*
X01489446Y00507000D01*
Y00491000D01*
X01489564Y00490405D01*
X01489901Y00489901D01*
X01490405Y00489565D01*
X01491000Y00489446D01*
X01503799D01*
X01504000Y00489420D01*
X01514580D01*
X01515000Y00489000D01*
X01518000Y00486000D01*
X01575802D01*
X01575901Y00485901D01*
X01576405Y00485564D01*
X01577000Y00485446D01*
X01611000D01*
X01611595Y00485564D01*
X01612099Y00485901D01*
X01613568Y00487371D01*
X01614976Y00486787D01*
Y00470976D01*
X01633024D01*
Y00489024D01*
X01617213D01*
X01616629Y00490432D01*
X01618644Y00492446D01*
X01649000D01*
Y00467000D01*
X01483000D01*
Y00470811D01*
X01483389Y00471393D01*
X01483569Y00472300D01*
Y00524446D01*
X01488000D01*
X01488595Y00524564D01*
X01488847Y00524733D01*
X01489099Y00524901D01*
X01493031Y00528833D01*
X01507740D01*
X01508579Y00529000D01*
X01509000D01*
Y00529275D01*
X01509315Y00529485D01*
X01509797Y00530208D01*
X01509967Y00531060D01*
Y00542940D01*
X01509797Y00543792D01*
X01509315Y00544515D01*
X01509000Y00544725D01*
Y00545000D01*
X01508578D01*
X01507740Y00545167D01*
X01493031D01*
X01491099Y00547099D01*
X01490595Y00547436D01*
X01490000Y00547554D01*
X01475000D01*
Y00549000D01*
Y00556726D01*
X01477024D01*
Y00560426D01*
X01511934D01*
X01520076Y00552284D01*
D02*
G37*
G36*
X01633000Y00547000D02*
Y00529000D01*
X01626000Y00522000D01*
X01599000D01*
X01593000Y00528000D01*
Y00535000D01*
Y00552000D01*
X01633000D01*
Y00547000D01*
D02*
G37*
G36*
X01493000Y00543000D02*
X01493000D01*
Y00531000D01*
X01488000Y00526000D01*
X01467000D01*
X01464000Y00529000D01*
Y00546000D01*
X01490000D01*
X01493000Y00543000D01*
D02*
G37*
G36*
X01478000Y00667000D02*
Y00621000D01*
Y00581000D01*
X01467000Y00570000D01*
X01463274Y00566274D01*
X01462976D01*
Y00565976D01*
X01462000Y00565000D01*
Y00529000D01*
X01460000Y00527000D01*
Y00471000D01*
X01428000D01*
X01427000Y00472000D01*
Y00527000D01*
X01426000Y00528000D01*
X01440000Y00542000D01*
Y00556000D01*
X01452000D01*
X01452726Y00556726D01*
X01453024D01*
Y00557024D01*
X01454000Y00558000D01*
Y00565000D01*
X01453024Y00565976D01*
Y00566274D01*
X01452726D01*
X01436000Y00583000D01*
Y00613000D01*
X01449000Y00626000D01*
X01453000Y00630000D01*
Y00638000D01*
Y00667000D01*
X01457917Y00671917D01*
X01473083D01*
X01478000Y00667000D01*
D02*
G37*
G36*
X01649000Y00494000D02*
X01618000D01*
X01617545Y00493545D01*
X01615531Y00491531D01*
X01611108Y00487108D01*
X01610988Y00487028D01*
X01610847Y00487000D01*
X01577153D01*
X01577012Y00487028D01*
X01576892Y00487108D01*
X01576000Y00488000D01*
X01519000D01*
X01516000Y00491000D01*
X01491153D01*
X01491025Y00491025D01*
X01491000Y00491153D01*
Y00506847D01*
X01491025Y00506975D01*
X01491153Y00507000D01*
X01508847D01*
X01508988Y00506972D01*
X01509108Y00506892D01*
X01513000Y00503000D01*
X01575000D01*
X01580000Y00498000D01*
X01599000D01*
X01601000Y00500000D01*
Y00520000D01*
X01627000D01*
X01635000Y00528000D01*
Y00595000D01*
X01632000Y00598000D01*
X01610131D01*
X01609736Y00598264D01*
X01601000Y00607000D01*
Y00631000D01*
X01611656Y00641656D01*
X01612174D01*
Y00642174D01*
X01614000Y00644000D01*
Y00648000D01*
X01621000Y00655000D01*
X01649000D01*
Y00494000D01*
D02*
G37*
G36*
X01595000Y00522000D02*
Y00500000D01*
X01582000D01*
X01573000Y00509000D01*
Y00528000D01*
X01589000D01*
X01595000Y00522000D01*
D02*
G37*
G36*
X01590748Y00641150D02*
X01591306Y00640315D01*
X01595427Y00636195D01*
Y00606000D01*
X01595622Y00605015D01*
X01596180Y00604180D01*
X01598000Y00602361D01*
Y00599000D01*
X01594000Y00595000D01*
X01585000D01*
Y00627000D01*
X01577000Y00635000D01*
Y00642000D01*
X01590579D01*
X01590748Y00641150D01*
D02*
G37*
G36*
X01635000Y00657000D02*
X01619000D01*
Y00657000D01*
X01611000Y00649000D01*
Y00644000D01*
X01609000Y00642000D01*
X01596900D01*
X01596000Y00642900D01*
Y00649824D01*
X01596552Y00650650D01*
X01596747Y00651635D01*
Y00657747D01*
X01607000Y00668000D01*
Y00683000D01*
X01635000D01*
Y00657000D01*
D02*
G37*
G36*
X01486476Y00583476D02*
X01493399D01*
X01501716Y00575158D01*
X01501716D01*
X01501716Y00575158D01*
X01501716D01*
X01501716Y00575158D01*
Y00575158D01*
X01501716Y00575158D01*
Y00575158D01*
X01502094Y00574906D01*
X01503000Y00574000D01*
X01504010D01*
X01504978Y00573807D01*
X01528193D01*
X01532976Y00569024D01*
Y00556476D01*
X01533000D01*
Y00556000D01*
X01542000D01*
X01545000Y00553000D01*
X01546034D01*
X01546524Y00552902D01*
X01561545D01*
X01562036Y00553000D01*
X01566495D01*
X01566548Y00552947D01*
X01567000Y00552495D01*
Y00544000D01*
X01562194D01*
Y00544244D01*
X01549146D01*
Y00544000D01*
X01545684D01*
Y00544244D01*
X01532636D01*
Y00544000D01*
X01529174D01*
Y00544244D01*
X01525223D01*
Y00553350D01*
X01525027Y00554335D01*
X01524470Y00555170D01*
X01514820Y00564820D01*
X01513985Y00565378D01*
X01513000Y00565573D01*
X01477024D01*
Y00566274D01*
X01475000D01*
Y00575000D01*
X01480000Y00580000D01*
Y00584000D01*
X01486476D01*
Y00583476D01*
D02*
G37*
G36*
X01554738Y00681765D02*
X01554387Y00680000D01*
X01554738Y00678235D01*
X01555738Y00676738D01*
X01557235Y00675739D01*
X01559000Y00675387D01*
X01560765Y00675739D01*
X01562262Y00676738D01*
X01562971Y00677801D01*
X01571000D01*
Y00636000D01*
X01582000Y00625000D01*
Y00590024D01*
X01579615D01*
X01577844Y00591796D01*
X01577009Y00592354D01*
X01576024Y00592549D01*
X01575008D01*
X01574942Y00592885D01*
X01573942Y00594382D01*
X01572445Y00595382D01*
X01570680Y00595733D01*
X01556680D01*
X01554915Y00595382D01*
X01553418Y00594382D01*
X01552419Y00592885D01*
X01552067Y00591120D01*
X01552419Y00589355D01*
X01553418Y00587858D01*
X01554915Y00586858D01*
X01556680Y00586507D01*
X01570680D01*
X01572445Y00586858D01*
X01573259Y00587402D01*
X01574958D01*
X01574976Y00587385D01*
Y00582607D01*
X01573632Y00581889D01*
X01572445Y00582682D01*
X01570680Y00583033D01*
X01556680D01*
X01554915Y00582682D01*
X01553418Y00581682D01*
X01552419Y00580185D01*
X01552067Y00578420D01*
X01551723Y00578000D01*
X01539523D01*
X01535842Y00581682D01*
X01534345Y00582682D01*
X01532580Y00583033D01*
X01528000D01*
Y00593361D01*
X01529820Y00595180D01*
X01530378Y00596015D01*
X01530573Y00597000D01*
Y00620000D01*
X01530378Y00620985D01*
X01529820Y00621820D01*
X01524571Y00627068D01*
X01525155Y00628476D01*
X01534524D01*
Y00641524D01*
X01531583D01*
Y00644476D01*
X01533024D01*
Y00662524D01*
X01523976D01*
Y00644476D01*
X01525417D01*
Y00641524D01*
X01522476D01*
Y00631155D01*
X01521068Y00630571D01*
X01520820Y00630820D01*
X01519985Y00631378D01*
X01519000Y00631573D01*
X01510721D01*
X01510262Y00632262D01*
X01508765Y00633261D01*
X01507000Y00633613D01*
X01505235Y00633261D01*
X01503738Y00632262D01*
X01501662Y00634338D01*
X01502262Y00635235D01*
X01502613Y00637000D01*
X01502262Y00638765D01*
X01501262Y00640262D01*
X01499765Y00641262D01*
X01498000Y00641613D01*
X01496235Y00641262D01*
X01494738Y00640262D01*
X01493739Y00638765D01*
X01493387Y00637000D01*
X01489613D01*
X01489261Y00638765D01*
X01488262Y00640262D01*
X01487000Y00641105D01*
Y00649476D01*
X01498524D01*
Y00650417D01*
X01504976D01*
Y00644476D01*
X01514024D01*
Y00662524D01*
X01504976D01*
Y00656583D01*
X01498524D01*
Y00662524D01*
X01485476D01*
X01474000Y00674000D01*
X01457000D01*
X01451000Y00668000D01*
Y00631000D01*
X01442820Y00622820D01*
X01429524Y00636115D01*
Y00646524D01*
X01416476D01*
Y00645000D01*
X01413000D01*
Y00683000D01*
X01554079D01*
X01554738Y00681765D01*
D02*
G37*
%LPC*%
G36*
X01633024Y00629024D02*
X01614976D01*
Y00610976D01*
X01633024D01*
Y00629024D01*
D02*
G37*
G36*
X01551524Y00657524D02*
X01538476D01*
Y00644476D01*
X01541917D01*
Y00641524D01*
X01539476D01*
Y00628476D01*
X01542417D01*
Y00614500D01*
X01542417Y00614500D01*
X01542651Y00613320D01*
X01543320Y00612320D01*
X01552129Y00603511D01*
X01552419Y00602055D01*
X01553418Y00600558D01*
X01554915Y00599558D01*
X01556680Y00599207D01*
X01570680D01*
X01572445Y00599558D01*
X01573942Y00600558D01*
X01574942Y00602055D01*
X01575293Y00603820D01*
X01574942Y00605585D01*
X01573942Y00607082D01*
X01572445Y00608082D01*
X01570680Y00608433D01*
X01556680D01*
X01556053Y00608308D01*
X01548583Y00615777D01*
Y00628476D01*
X01551524D01*
Y00641524D01*
X01548083D01*
Y00644476D01*
X01551524D01*
Y00657524D01*
D02*
G37*
%LPD*%
D10*
X01601930Y00560200D02*
D03*
X01584930D02*
D03*
X01599150Y00672850D02*
D03*
X01582150D02*
D03*
X01545500Y00635000D02*
D03*
X01528500D02*
D03*
X01556000Y00563000D02*
D03*
X01539000D02*
D03*
D11*
X01602930Y00530990D02*
D03*
X01583930Y00521490D02*
D03*
Y00540490D02*
D03*
X01603150Y00646180D02*
D03*
X01584150Y00636680D02*
D03*
Y00655680D02*
D03*
D12*
X01423000Y00538500D02*
D03*
Y00555500D02*
D03*
X01555670Y00521220D02*
D03*
Y00538220D02*
D03*
X01539160Y00538220D02*
D03*
Y00521220D02*
D03*
X01493000Y00622500D02*
D03*
Y00605500D02*
D03*
X01423000Y00623500D02*
D03*
Y00640500D02*
D03*
D13*
X01470000Y00542500D02*
D03*
Y00552000D02*
D03*
Y00561500D02*
D03*
X01446000D02*
D03*
Y00542500D02*
D03*
D14*
X01522650Y00521720D02*
D03*
Y00537720D02*
D03*
X01492000Y00656000D02*
D03*
Y00672000D02*
D03*
X01545000Y00651000D02*
D03*
Y00667000D02*
D03*
X01571000Y00496000D02*
D03*
Y00480000D02*
D03*
X01493000Y00590000D02*
D03*
Y00574000D02*
D03*
D15*
X01606000Y00620000D02*
D03*
X01590000D02*
D03*
X01606000Y00505000D02*
D03*
X01590000D02*
D03*
D16*
X01519000Y00672500D02*
D03*
X01528500Y00653500D02*
D03*
X01509500D02*
D03*
D17*
X01551000Y00496500D02*
D03*
Y00479500D02*
D03*
X01528000Y00496500D02*
D03*
Y00479500D02*
D03*
D18*
X01500000Y00537000D02*
D03*
Y00500000D02*
D03*
D19*
X01423000Y00607500D02*
D03*
Y00578500D02*
D03*
D20*
X01427000Y00500000D02*
D03*
X01474000D02*
D03*
D21*
X01563680Y00578420D02*
D03*
Y00591120D02*
D03*
Y00603820D02*
D03*
Y00616520D02*
D03*
X01513680Y00578420D02*
D03*
Y00591120D02*
D03*
Y00603820D02*
D03*
Y00616520D02*
D03*
D22*
X01459500Y00638000D02*
D03*
X01442500D02*
D03*
D23*
X01604000Y00577500D02*
D03*
Y00590500D02*
D03*
D24*
X01580000Y00584000D02*
D03*
D25*
X01513680Y00591120D02*
X01522120D01*
X01528000Y00597000D01*
X01556000Y00563000D02*
Y00578000D01*
X01523150Y00521220D02*
X01539160D01*
Y00496160D02*
Y00521220D01*
X01522650Y00537720D02*
Y00553350D01*
X01513000Y00563000D02*
X01522650Y00553350D01*
X01471500Y00563000D02*
X01513000D01*
X01523150Y00538220D02*
X01555670D01*
X01498980Y00616520D02*
X01513680D01*
X01493000Y00622500D02*
X01498980Y00616520D01*
X01582150Y00657680D02*
Y00672850D01*
X01584930Y00541490D02*
Y00560200D01*
X01604730Y00563000D02*
X01624000D01*
X01598000Y00564130D02*
X01601930Y00560200D01*
X01593126Y00642134D02*
X01598000Y00637261D01*
X01593126Y00642134D02*
Y00650586D01*
X01594174Y00651635D01*
Y00667874D01*
X01599150Y00672850D01*
X01591626Y00680374D02*
X01599150Y00672850D01*
X01559374Y00680374D02*
X01591626D01*
X01559000Y00680000D02*
X01559374Y00680374D01*
X01498000Y00627500D02*
Y00637000D01*
X01493000Y00622500D02*
X01498000Y00627500D01*
X01509228Y00603820D02*
X01513680D01*
X01500524Y00612524D02*
X01509228Y00603820D01*
X01488476Y00612524D02*
X01500524D01*
X01485000Y00616000D02*
X01488476Y00612524D01*
X01485000Y00616000D02*
Y00637000D01*
X01555000Y00511000D02*
Y00520550D01*
X01563680Y00591120D02*
X01564824Y00589976D01*
X01423000Y00607500D02*
Y00623500D01*
Y00639000D02*
Y00640500D01*
Y00639000D02*
X01445000Y00617000D01*
X01415000Y00586500D02*
X01423000Y00578500D01*
X01507000Y00629000D02*
X01519000D01*
X01564824Y00589976D02*
X01576024D01*
X01598000Y00606000D02*
Y00637261D01*
X01539000Y00563000D02*
X01546524Y00555476D01*
X01601930Y00560200D02*
X01604548Y00562818D01*
X01576024Y00589976D02*
X01580000Y00586000D01*
X01601930Y00560200D02*
Y00564930D01*
X01611000Y00574000D01*
X01607976Y00596024D02*
X01608546D01*
X01611000Y00574000D02*
Y00593569D01*
X01608546Y00596024D02*
X01611000Y00593569D01*
X01598000Y00606000D02*
X01607976Y00596024D01*
X01598069Y00590500D02*
X01604000D01*
X01561545Y00555476D02*
X01563024Y00556954D01*
X01546524Y00555476D02*
X01561545D01*
X01590053Y00577500D02*
X01604000D01*
X01562997Y00549396D02*
X01566548Y00552947D01*
X01562997Y00548999D02*
Y00549396D01*
X01566548Y00552947D02*
Y00560548D01*
X01579000Y00573000D01*
X01585553D01*
X01590053Y00577500D01*
X01584093Y00576524D02*
X01598069Y00590500D01*
X01563024Y00556954D02*
Y00562008D01*
X01577540Y00576524D01*
X01584093D01*
X01528000Y00597000D02*
Y00620000D01*
X01519000Y00629000D02*
X01528000Y00620000D01*
X01438000Y00561500D02*
Y00573000D01*
Y00561500D02*
X01446000D01*
X01429000D02*
X01438000D01*
X01423000Y00555500D02*
X01429000Y00561500D01*
X01423000Y00504000D02*
Y00538500D01*
D26*
X01439000Y00664000D02*
X01442500Y00660500D01*
Y00638000D02*
Y00660500D01*
X01459500Y00659100D02*
X01464400Y00664000D01*
X01459500Y00638000D02*
Y00659100D01*
X01458000Y00636500D02*
X01459500Y00638000D01*
X01458000Y00567476D02*
Y00636500D01*
X01606000Y00627400D02*
X01624000Y00645400D01*
X01606000Y00620000D02*
Y00627400D01*
X01606400Y00505400D02*
X01624000D01*
X01603120Y00530800D02*
X01624000D01*
X01603150Y00649950D02*
X01624000Y00670800D01*
X01603150Y00648000D02*
Y00649950D01*
X01590000Y00620000D02*
Y00630830D01*
X01584150Y00636680D02*
X01590000Y00630830D01*
Y00505000D02*
Y00515420D01*
X01583930Y00521490D02*
X01590000Y00515420D01*
X01571000Y00496000D02*
X01575000D01*
X01578000Y00493000D01*
X01601000D01*
X01606400Y00498400D01*
Y00505400D01*
X01500000Y00500000D02*
X01504000Y00496000D01*
X01474000Y00500000D02*
Y00537000D01*
X01470000Y00541000D02*
X01474000Y00537000D01*
X01474000Y00537000D02*
X01500000D01*
X01504000Y00496000D02*
X01571000D01*
X01482000Y00573000D02*
X01492000D01*
X01579000Y00510000D02*
X01584000Y00505000D01*
X01590000D01*
X01590000Y00609000D02*
Y00620000D01*
X01624000Y00505400D02*
X01643000Y00524400D01*
Y00626400D01*
X01624000Y00645400D02*
X01643000Y00626400D01*
X01571000Y00480000D02*
X01585000D01*
X01511000D02*
X01571000D01*
D27*
X01458000Y00554500D02*
Y00567476D01*
X01446000Y00542500D02*
X01458000Y00554500D01*
X01427000Y00523500D02*
X01446000Y00542500D01*
D28*
X01464400Y00664000D02*
X01474900Y00653500D01*
X01509500D01*
X01519000Y00672500D02*
X01539500D01*
X01545000Y00667000D01*
X01528500Y00635000D02*
Y00653500D01*
X01545000Y00635500D02*
Y00651000D01*
X01439000Y00664000D02*
X01450000Y00675000D01*
X01516500D01*
X01519000Y00672500D01*
X01545000Y00665277D02*
Y00667000D01*
X01536976Y00657253D02*
X01545000Y00665277D01*
X01536976Y00644723D02*
Y00657253D01*
Y00644723D02*
X01537000Y00644699D01*
Y00609996D02*
X01549997Y00596999D01*
X01537000Y00609996D02*
Y00644699D01*
X01545000Y00667000D02*
X01555000Y00657000D01*
Y00618000D02*
Y00657000D01*
X01545500Y00614500D02*
Y00635000D01*
Y00614500D02*
X01556180Y00603820D01*
X01563680D01*
D29*
X01513680Y00578420D02*
X01532580D01*
X01493000Y00590000D02*
X01493398D01*
X01504978Y00578420D01*
X01513680D01*
X01493000Y00590000D02*
Y00605500D01*
X01459000Y00590000D02*
X01493000D01*
X01470000Y00552000D02*
X01480000D01*
X01481000Y00551000D01*
X01532580Y00578420D02*
X01539000Y00572000D01*
Y00563000D02*
Y00572000D01*
X01563680Y00616520D02*
Y00624680D01*
Y00631680D01*
D30*
X01624000Y00670800D02*
D03*
Y00645400D02*
D03*
Y00588400D02*
D03*
Y00530800D02*
D03*
Y00505400D02*
D03*
X01464400Y00664000D02*
D03*
D31*
X01624000Y00620000D02*
D03*
Y00563000D02*
D03*
Y00480000D02*
D03*
D32*
X01439000Y00664000D02*
D03*
D33*
X01482000Y00573000D02*
D03*
X01481000Y00551000D02*
D03*
X01491000D02*
D03*
X01501000D02*
D03*
X01511000D02*
D03*
X01486000Y00556000D02*
D03*
X01496000D02*
D03*
X01506000D02*
D03*
X01579000Y00510000D02*
D03*
X01511000Y00480000D02*
D03*
X01501000D02*
D03*
X01491000D02*
D03*
X01496000Y00475000D02*
D03*
X01506000D02*
D03*
Y00485000D02*
D03*
X01496000D02*
D03*
X01590000Y00607000D02*
D03*
X01559000Y00680000D02*
D03*
X01498000Y00637000D02*
D03*
X01485000D02*
D03*
X01585000Y00480000D02*
D03*
X01595000D02*
D03*
X01605000D02*
D03*
X01600000Y00475000D02*
D03*
X01590000D02*
D03*
X01580000D02*
D03*
X01555000Y00511000D02*
D03*
X01415000Y00586500D02*
D03*
X01507000Y00629000D02*
D03*
X01549997Y00596999D02*
D03*
X01585000Y00505000D02*
D03*
X01590000Y00614000D02*
D03*
X01562997Y00548999D02*
D03*
X01438000Y00573000D02*
D03*
X01563680Y00624680D02*
D03*
X01564000Y00632000D02*
D03*
X01590000Y00600000D02*
D03*
X01586000Y00513000D02*
D03*
X01505000Y00570000D02*
D03*
X01517000D02*
D03*
X01529000Y00559000D02*
D03*
X01509000Y00524000D02*
D03*
Y00514000D02*
D03*
X01494000Y00524000D02*
D03*
Y00514000D02*
D03*
X01488000Y00472000D02*
D03*
X01514000D02*
D03*
X01443000Y00629000D02*
D03*
X01447000Y00651000D02*
D03*
X01431000D02*
D03*
X01427000Y00663000D02*
D03*
M02*
