%FSAX44Y44*%
%MOMM*%
G71*
G01*
G75*
G04 Layer_Physical_Order=2*
G04 Layer_Color=16711680*
%ADD10R,0.9000X1.0000*%
%ADD11R,1.5000X0.6000*%
%ADD12R,1.0000X0.9000*%
%ADD13R,1.1000X0.6500*%
%ADD14R,1.0000X1.0000*%
%ADD15R,1.0000X1.0000*%
%ADD16R,0.6000X1.5000*%
%ADD17R,1.5000X1.3000*%
G04:AMPARAMS|DCode=18|XSize=1.32mm|YSize=1.68mm|CornerRadius=0.066mm|HoleSize=0mm|Usage=FLASHONLY|Rotation=90.000|XOffset=0mm|YOffset=0mm|HoleType=Round|Shape=RoundedRectangle|*
%AMROUNDEDRECTD18*
21,1,1.3200,1.5480,0,0,90.0*
21,1,1.1880,1.6800,0,0,90.0*
1,1,0.1320,0.7740,0.5940*
1,1,0.1320,0.7740,-0.5940*
1,1,0.1320,-0.7740,-0.5940*
1,1,0.1320,-0.7740,0.5940*
%
%ADD18ROUNDEDRECTD18*%
%ADD19R,1.8000X1.3000*%
G04:AMPARAMS|DCode=20|XSize=1.6mm|YSize=5.7mm|CornerRadius=0.08mm|HoleSize=0mm|Usage=FLASHONLY|Rotation=0.000|XOffset=0mm|YOffset=0mm|HoleType=Round|Shape=RoundedRectangle|*
%AMROUNDEDRECTD20*
21,1,1.6000,5.5400,0,0,0.0*
21,1,1.4400,5.7000,0,0,0.0*
1,1,0.1600,0.7200,-2.7700*
1,1,0.1600,-0.7200,-2.7700*
1,1,0.1600,-0.7200,2.7700*
1,1,0.1600,0.7200,2.7700*
%
%ADD20ROUNDEDRECTD20*%
%ADD21O,2.0000X0.6000*%
%ADD22R,1.3000X1.5000*%
%ADD23R,0.7000X0.6000*%
%ADD24R,0.7000X0.9000*%
%ADD25C,0.2000*%
%ADD26C,1.0000*%
%ADD27C,0.8000*%
%ADD28C,0.3000*%
%ADD29C,0.6000*%
%ADD30C,1.5000*%
%ADD31R,1.5000X1.5000*%
%ADD32R,1.5000X1.5000*%
%ADD33C,0.6000*%
G36*
X01649000Y00467000D02*
X01571000D01*
Y00683000D01*
X01649000D01*
Y00467000D01*
D02*
G37*
G36*
X01567000D02*
X01413000D01*
Y00581084D01*
X01414178Y00582051D01*
X01415000Y00581887D01*
X01416765Y00582239D01*
X01418262Y00583238D01*
X01419261Y00584735D01*
X01419613Y00586500D01*
X01419261Y00588265D01*
X01418262Y00589762D01*
X01417573Y00590221D01*
Y00597796D01*
X01418981Y00598379D01*
X01435426Y00581934D01*
Y00576721D01*
X01434738Y00576262D01*
X01433739Y00574765D01*
X01433387Y00573000D01*
X01433739Y00571235D01*
X01434738Y00569738D01*
X01436235Y00568739D01*
X01438000Y00568387D01*
X01439765Y00568739D01*
X01441262Y00569738D01*
X01442262Y00571235D01*
X01442613Y00573000D01*
X01442262Y00574765D01*
X01441262Y00576262D01*
X01440573Y00576721D01*
Y00583000D01*
X01440378Y00583985D01*
X01439820Y00584820D01*
X01423097Y00601542D01*
Y00666458D01*
X01432066Y00675426D01*
X01472934D01*
X01482426Y00665934D01*
Y00640721D01*
X01481738Y00640262D01*
X01480739Y00638765D01*
X01480387Y00637000D01*
X01480739Y00635235D01*
X01481738Y00633738D01*
X01483235Y00632738D01*
X01485000Y00632387D01*
X01486765Y00632738D01*
X01486765Y00632738D01*
X01486765Y00632738D01*
X01489415Y00632999D01*
X01489428Y00632994D01*
X01489622Y00632015D01*
X01490180Y00631180D01*
X01494180Y00627180D01*
X01495015Y00626622D01*
X01496000Y00626427D01*
X01503279D01*
X01503738Y00625738D01*
X01505235Y00624739D01*
X01507000Y00624387D01*
X01508765Y00624739D01*
X01510262Y00625738D01*
X01511261Y00627235D01*
X01511613Y00629000D01*
X01511261Y00630765D01*
X01510262Y00632262D01*
X01508765Y00633261D01*
X01507000Y00633613D01*
X01505235Y00633261D01*
X01503738Y00632262D01*
X01503279Y00631573D01*
X01500647D01*
X01500204Y00633032D01*
X01501262Y00633738D01*
X01502262Y00635235D01*
X01502613Y00637000D01*
X01502262Y00638765D01*
X01501262Y00640262D01*
X01500573Y00640721D01*
Y00665934D01*
X01512066Y00677427D01*
X01555279D01*
X01555738Y00676738D01*
X01557235Y00675739D01*
X01559000Y00675387D01*
X01560765Y00675739D01*
X01562262Y00676738D01*
X01563262Y00678235D01*
X01563613Y00680000D01*
X01563262Y00681765D01*
X01563922Y00683000D01*
X01567000D01*
Y00467000D01*
D02*
G37*
%LPC*%
G36*
X01624000Y00539902D02*
X01621644Y00539592D01*
X01619449Y00538682D01*
X01617564Y00537236D01*
X01616118Y00535351D01*
X01615208Y00533156D01*
X01614898Y00530800D01*
X01615208Y00528444D01*
X01616118Y00526249D01*
X01617564Y00524364D01*
X01619449Y00522918D01*
X01621644Y00522008D01*
X01624000Y00521698D01*
X01626356Y00522008D01*
X01628551Y00522918D01*
X01630436Y00524364D01*
X01631882Y00526249D01*
X01632792Y00528444D01*
X01633102Y00530800D01*
X01632792Y00533156D01*
X01631882Y00535351D01*
X01630436Y00537236D01*
X01628551Y00538682D01*
X01626356Y00539592D01*
X01624000Y00539902D01*
D02*
G37*
G36*
Y00514502D02*
X01621644Y00514192D01*
X01619449Y00513282D01*
X01617564Y00511836D01*
X01616118Y00509951D01*
X01615208Y00507756D01*
X01614898Y00505400D01*
X01615208Y00503044D01*
X01616118Y00500849D01*
X01617564Y00498964D01*
X01619449Y00497518D01*
X01621644Y00496608D01*
X01624000Y00496298D01*
X01626356Y00496608D01*
X01628551Y00497518D01*
X01630436Y00498964D01*
X01631882Y00500849D01*
X01632792Y00503044D01*
X01633102Y00505400D01*
X01632792Y00507756D01*
X01631882Y00509951D01*
X01630436Y00511836D01*
X01628551Y00513282D01*
X01626356Y00514192D01*
X01624000Y00514502D01*
D02*
G37*
G36*
X01633024Y00489024D02*
X01614976D01*
Y00470976D01*
X01633024D01*
Y00489024D01*
D02*
G37*
G36*
Y00572024D02*
X01614976D01*
Y00553976D01*
X01633024D01*
Y00572024D01*
D02*
G37*
G36*
X01464400Y00673102D02*
X01462044Y00672792D01*
X01459849Y00671882D01*
X01457964Y00670436D01*
X01456518Y00668551D01*
X01455608Y00666356D01*
X01455298Y00664000D01*
X01455608Y00661644D01*
X01456518Y00659449D01*
X01457964Y00657564D01*
X01459849Y00656118D01*
X01462044Y00655208D01*
X01464400Y00654898D01*
X01466756Y00655208D01*
X01468951Y00656118D01*
X01470836Y00657564D01*
X01472282Y00659449D01*
X01473192Y00661644D01*
X01473502Y00664000D01*
X01473192Y00666356D01*
X01472282Y00668551D01*
X01470836Y00670436D01*
X01468951Y00671882D01*
X01466756Y00672792D01*
X01464400Y00673102D01*
D02*
G37*
G36*
X01624000Y00679902D02*
X01621644Y00679592D01*
X01619449Y00678682D01*
X01617564Y00677236D01*
X01616118Y00675351D01*
X01615208Y00673156D01*
X01614898Y00670800D01*
X01615208Y00668444D01*
X01616118Y00666249D01*
X01617564Y00664364D01*
X01619449Y00662918D01*
X01621644Y00662008D01*
X01624000Y00661698D01*
X01626356Y00662008D01*
X01628551Y00662918D01*
X01630436Y00664364D01*
X01631882Y00666249D01*
X01632792Y00668444D01*
X01633102Y00670800D01*
X01632792Y00673156D01*
X01631882Y00675351D01*
X01630436Y00677236D01*
X01628551Y00678682D01*
X01626356Y00679592D01*
X01624000Y00679902D01*
D02*
G37*
G36*
X01633024Y00629024D02*
X01614976D01*
Y00610976D01*
X01633024D01*
Y00629024D01*
D02*
G37*
G36*
X01624000Y00654502D02*
X01621644Y00654192D01*
X01619449Y00653282D01*
X01617564Y00651836D01*
X01616118Y00649951D01*
X01615208Y00647756D01*
X01614898Y00645400D01*
X01615208Y00643044D01*
X01616118Y00640849D01*
X01617564Y00638964D01*
X01619449Y00637518D01*
X01621644Y00636608D01*
X01624000Y00636298D01*
X01626356Y00636608D01*
X01628551Y00637518D01*
X01630436Y00638964D01*
X01631882Y00640849D01*
X01632792Y00643044D01*
X01633102Y00645400D01*
X01632792Y00647756D01*
X01631882Y00649951D01*
X01630436Y00651836D01*
X01628551Y00653282D01*
X01626356Y00654192D01*
X01624000Y00654502D01*
D02*
G37*
%LPD*%
D25*
X01511000Y00680000D02*
X01559000D01*
X01498000Y00667000D02*
X01511000Y00680000D01*
X01498000Y00637000D02*
Y00667000D01*
X01511000Y00511000D02*
X01555000D01*
X01415000Y00586500D02*
Y00669000D01*
X01428000Y00682000D01*
X01479000D01*
X01492000Y00669000D01*
Y00633000D02*
Y00669000D01*
Y00633000D02*
X01496000Y00629000D01*
X01507000D01*
X01562997Y00548999D02*
X01563000Y00549002D01*
X01485000Y00637000D02*
Y00667000D01*
X01474000Y00678000D02*
X01485000Y00667000D01*
X01431000Y00678000D02*
X01474000D01*
X01420524Y00667524D02*
X01431000Y00678000D01*
X01420524Y00600476D02*
Y00667524D01*
Y00600476D02*
X01438000Y00583000D01*
Y00573000D02*
Y00583000D01*
D26*
X01459000Y00573000D02*
X01482000D01*
X01491000Y00551000D02*
X01501000D01*
X01496000Y00556000D02*
X01506000D01*
X01501000Y00551000D02*
X01511000D01*
X01491000Y00480000D02*
Y00480000D01*
Y00480000D02*
X01496000Y00475000D01*
X01491000Y00480000D02*
X01496000Y00485000D01*
Y00475000D02*
X01506000D01*
X01496000Y00485000D02*
X01506000D01*
X01506000Y00475000D02*
X01511000Y00480000D01*
X01590000Y00603000D02*
Y00610000D01*
X01604600Y00588400D02*
X01624000D01*
X01590000Y00603000D02*
X01604600Y00588400D01*
X01482000Y00573000D02*
X01519000Y00610000D01*
X01486000Y00556000D02*
X01496000D01*
X01481000Y00551000D02*
X01491000D01*
X01459000Y00573000D02*
X01481000Y00551000D01*
X01585000Y00480000D02*
Y00504000D01*
X01579000Y00510000D02*
X01585000Y00504000D01*
X01511000Y00480000D02*
Y00511000D01*
Y00551000D01*
X01585000Y00568800D02*
X01604600Y00588400D01*
X01580000Y00475000D02*
X01585000Y00480000D01*
X01580000Y00475000D02*
X01590000D01*
X01600000D01*
X01585000Y00480000D02*
X01605000D01*
X01600000Y00475000D02*
X01605000Y00480000D01*
X01585000Y00504000D02*
Y00505000D01*
Y00568800D01*
X01439000Y00593000D02*
Y00664000D01*
Y00593000D02*
X01459000Y00573000D01*
D30*
X01624000Y00670800D02*
D03*
Y00645400D02*
D03*
Y00588400D02*
D03*
Y00530800D02*
D03*
Y00505400D02*
D03*
X01464400Y00664000D02*
D03*
D31*
X01624000Y00620000D02*
D03*
Y00563000D02*
D03*
Y00480000D02*
D03*
D32*
X01439000Y00664000D02*
D03*
D33*
X01482000Y00573000D02*
D03*
X01481000Y00551000D02*
D03*
X01491000D02*
D03*
X01501000D02*
D03*
X01511000D02*
D03*
X01486000Y00556000D02*
D03*
X01496000D02*
D03*
X01506000D02*
D03*
X01579000Y00510000D02*
D03*
X01511000Y00480000D02*
D03*
X01501000D02*
D03*
X01491000D02*
D03*
X01496000Y00475000D02*
D03*
X01506000D02*
D03*
Y00485000D02*
D03*
X01496000D02*
D03*
X01590000Y00607000D02*
D03*
X01559000Y00680000D02*
D03*
X01498000Y00637000D02*
D03*
X01485000D02*
D03*
X01585000Y00480000D02*
D03*
X01595000D02*
D03*
X01605000D02*
D03*
X01600000Y00475000D02*
D03*
X01590000D02*
D03*
X01580000D02*
D03*
X01555000Y00511000D02*
D03*
X01415000Y00586500D02*
D03*
X01507000Y00629000D02*
D03*
X01549997Y00596999D02*
D03*
X01585000Y00505000D02*
D03*
X01590000Y00614000D02*
D03*
X01562997Y00548999D02*
D03*
X01438000Y00573000D02*
D03*
X01563680Y00624680D02*
D03*
X01564000Y00632000D02*
D03*
X01590000Y00600000D02*
D03*
X01586000Y00513000D02*
D03*
X01505000Y00570000D02*
D03*
X01517000D02*
D03*
X01529000Y00559000D02*
D03*
X01509000Y00524000D02*
D03*
Y00514000D02*
D03*
X01494000Y00524000D02*
D03*
Y00514000D02*
D03*
X01488000Y00472000D02*
D03*
X01514000D02*
D03*
X01443000Y00629000D02*
D03*
X01447000Y00651000D02*
D03*
X01431000D02*
D03*
X01427000Y00663000D02*
D03*
M02*
