%FSAX44Y44*%
%MOMM*%
G71*
G01*
G75*
G04 Layer_Color=8388736*
%ADD10R,0.9000X1.0000*%
%ADD11R,1.5000X0.6000*%
%ADD12R,1.0000X0.9000*%
%ADD13R,1.1000X0.6500*%
%ADD14R,1.0000X1.0000*%
%ADD15R,1.0000X1.0000*%
%ADD16R,0.6000X1.5000*%
%ADD17R,1.5000X1.3000*%
G04:AMPARAMS|DCode=18|XSize=1.32mm|YSize=1.68mm|CornerRadius=0.066mm|HoleSize=0mm|Usage=FLASHONLY|Rotation=90.000|XOffset=0mm|YOffset=0mm|HoleType=Round|Shape=RoundedRectangle|*
%AMROUNDEDRECTD18*
21,1,1.3200,1.5480,0,0,90.0*
21,1,1.1880,1.6800,0,0,90.0*
1,1,0.1320,0.7740,0.5940*
1,1,0.1320,0.7740,-0.5940*
1,1,0.1320,-0.7740,-0.5940*
1,1,0.1320,-0.7740,0.5940*
%
%ADD18ROUNDEDRECTD18*%
%ADD19R,1.8000X1.3000*%
G04:AMPARAMS|DCode=20|XSize=1.6mm|YSize=5.7mm|CornerRadius=0.08mm|HoleSize=0mm|Usage=FLASHONLY|Rotation=0.000|XOffset=0mm|YOffset=0mm|HoleType=Round|Shape=RoundedRectangle|*
%AMROUNDEDRECTD20*
21,1,1.6000,5.5400,0,0,0.0*
21,1,1.4400,5.7000,0,0,0.0*
1,1,0.1600,0.7200,-2.7700*
1,1,0.1600,-0.7200,-2.7700*
1,1,0.1600,-0.7200,2.7700*
1,1,0.1600,0.7200,2.7700*
%
%ADD20ROUNDEDRECTD20*%
%ADD21O,2.0000X0.6000*%
%ADD22R,1.3000X1.5000*%
%ADD23R,0.7000X0.6000*%
%ADD24R,0.7000X0.9000*%
%ADD25C,0.2000*%
%ADD26C,1.0000*%
%ADD27C,0.8000*%
%ADD28C,0.3000*%
%ADD29C,0.6000*%
%ADD30C,1.5000*%
%ADD31R,1.5000X1.5000*%
%ADD32R,1.5000X1.5000*%
%ADD33C,0.6000*%
%ADD34C,0.2500*%
%ADD35C,0.1270*%
%ADD36C,0.1000*%
%ADD37C,0.1524*%
%ADD38R,2.0000X1.5000*%
%ADD39R,1.0000X1.1000*%
%ADD40R,1.6000X0.7000*%
%ADD41R,1.1000X1.0000*%
%ADD42R,1.2000X0.7500*%
%ADD43R,1.1000X1.1000*%
%ADD44R,1.1000X1.1000*%
%ADD45R,0.7000X1.6000*%
%ADD46R,1.6000X1.4000*%
G04:AMPARAMS|DCode=47|XSize=1.42mm|YSize=1.78mm|CornerRadius=0.116mm|HoleSize=0mm|Usage=FLASHONLY|Rotation=90.000|XOffset=0mm|YOffset=0mm|HoleType=Round|Shape=RoundedRectangle|*
%AMROUNDEDRECTD47*
21,1,1.4200,1.5480,0,0,90.0*
21,1,1.1880,1.7800,0,0,90.0*
1,1,0.2320,0.7740,0.5940*
1,1,0.2320,0.7740,-0.5940*
1,1,0.2320,-0.7740,-0.5940*
1,1,0.2320,-0.7740,0.5940*
%
%ADD47ROUNDEDRECTD47*%
%ADD48R,1.9000X1.4000*%
G04:AMPARAMS|DCode=49|XSize=1.7mm|YSize=5.8mm|CornerRadius=0.13mm|HoleSize=0mm|Usage=FLASHONLY|Rotation=0.000|XOffset=0mm|YOffset=0mm|HoleType=Round|Shape=RoundedRectangle|*
%AMROUNDEDRECTD49*
21,1,1.7000,5.5400,0,0,0.0*
21,1,1.4400,5.8000,0,0,0.0*
1,1,0.2600,0.7200,-2.7700*
1,1,0.2600,-0.7200,-2.7700*
1,1,0.2600,-0.7200,2.7700*
1,1,0.2600,0.7200,2.7700*
%
%ADD49ROUNDEDRECTD49*%
%ADD50O,2.1000X0.7000*%
%ADD51R,1.4000X1.6000*%
%ADD52R,0.8000X0.7000*%
%ADD53R,0.8000X1.0000*%
%ADD54C,1.6000*%
%ADD55R,1.6000X1.6000*%
%ADD56R,1.6000X1.6000*%
D38*
X01423000Y00574500D02*
D03*
D39*
X01601930Y00560200D02*
D03*
X01584930D02*
D03*
X01599150Y00672850D02*
D03*
X01582150D02*
D03*
X01545500Y00635000D02*
D03*
X01528500D02*
D03*
X01556000Y00563000D02*
D03*
X01539000D02*
D03*
D40*
X01602930Y00530990D02*
D03*
X01583930Y00521490D02*
D03*
Y00540490D02*
D03*
X01603150Y00646180D02*
D03*
X01584150Y00636680D02*
D03*
Y00655680D02*
D03*
D41*
X01423000Y00538500D02*
D03*
Y00555500D02*
D03*
X01555670Y00521220D02*
D03*
Y00538220D02*
D03*
X01539160Y00538220D02*
D03*
Y00521220D02*
D03*
X01493000Y00622500D02*
D03*
Y00605500D02*
D03*
X01423000Y00623500D02*
D03*
Y00640500D02*
D03*
D42*
X01470000Y00542500D02*
D03*
Y00552000D02*
D03*
Y00561500D02*
D03*
X01446000D02*
D03*
Y00542500D02*
D03*
D43*
X01522650Y00521720D02*
D03*
Y00537720D02*
D03*
X01492000Y00656000D02*
D03*
Y00672000D02*
D03*
X01545000Y00651000D02*
D03*
Y00667000D02*
D03*
X01571000Y00496000D02*
D03*
Y00480000D02*
D03*
X01493000Y00590000D02*
D03*
Y00574000D02*
D03*
D44*
X01606000Y00620000D02*
D03*
X01590000D02*
D03*
X01606000Y00505000D02*
D03*
X01590000D02*
D03*
D45*
X01519000Y00672500D02*
D03*
X01528500Y00653500D02*
D03*
X01509500D02*
D03*
D46*
X01551000Y00496500D02*
D03*
Y00479500D02*
D03*
X01528000Y00496500D02*
D03*
Y00479500D02*
D03*
D47*
X01500000Y00537000D02*
D03*
Y00500000D02*
D03*
D48*
X01423000Y00607500D02*
D03*
Y00578500D02*
D03*
D49*
X01427000Y00500000D02*
D03*
X01474000D02*
D03*
D50*
X01563680Y00578420D02*
D03*
Y00591120D02*
D03*
Y00603820D02*
D03*
Y00616520D02*
D03*
X01513680Y00578420D02*
D03*
Y00591120D02*
D03*
Y00603820D02*
D03*
Y00616520D02*
D03*
D51*
X01459500Y00638000D02*
D03*
X01442500D02*
D03*
D52*
X01604000Y00577500D02*
D03*
Y00590500D02*
D03*
D53*
X01580000Y00584000D02*
D03*
D54*
X01624000Y00670800D02*
D03*
Y00645400D02*
D03*
Y00588400D02*
D03*
Y00530800D02*
D03*
Y00505400D02*
D03*
X01464400Y00664000D02*
D03*
D55*
X01624000Y00620000D02*
D03*
Y00563000D02*
D03*
Y00480000D02*
D03*
D56*
X01439000Y00664000D02*
D03*
M02*
